<svg xmlns="http://www.w3.org/2000/svg" viewBox="0 0 1200 675" role="img">
  <defs>
    <linearGradient id="bg" x1="0" x2="1" y1="0" y2="1">
      <stop offset="0" stop-color="#ecfdf5"/>
      <stop offset="1" stop-color="#fef9c3"/>
    </linearGradient>
  </defs>
  <rect width="1200" height="675" fill="url(#bg)"/>
  <rect x="180" y="180" width="280" height="320" rx="24" fill="#ffffff" stroke="#86efac" stroke-width="3"/>
  <rect x="460" y="180" width="280" height="320" rx="24" fill="#ffffff" stroke="#86efac" stroke-width="3"/>
  <rect x="740" y="180" width="280" height="320" rx="24" fill="#ffffff" stroke="#86efac" stroke-width="3"/>
  <path d="M250 260h140M250 310h100" stroke="#334155" stroke-width="16" stroke-linecap="round"/>
  <path d="M530 260h140M530 310h100" stroke="#334155" stroke-width="16" stroke-linecap="round"/>
  <path d="M810 260h140M810 310h100" stroke="#334155" stroke-width="16" stroke-linecap="round"/>
  <circle cx="310" cy="400" r="42" fill="#16a34a"/>
  <circle cx="600" cy="400" r="42" fill="#16a34a"/>
  <circle cx="890" cy="400" r="42" fill="#16a34a"/>
  <path d="M290 400h40M580 400h40M870 400h40" stroke="#fff" stroke-width="10" stroke-linecap="round"/>
  <rect x="420" y="90" width="360" height="56" rx="28" fill="#059669"/>
  <text x="600" y="128" text-anchor="middle" font-family="Arial,sans-serif" font-size="28" font-weight="700" fill="#ffffff">SAVE</text>
</svg>
